<svg width="15" height="15" viewBox="0 0 15 15" fill="none" xmlns="http://www.w3.org/2000/svg">
<path d="M14.625 3.54167V0.375H11.4583V1.16667H3.54167V0.375H0.375V3.54167H1.16667V11.4583H0.375V14.625H3.54167V13.8333H11.4583V14.625H14.625V11.4583H13.8333V3.54167H14.625ZM12.25 1.16667H13.8333V2.75H12.25V1.16667ZM1.16667 1.16667H2.75V2.75H1.16667V1.16667ZM2.75 13.8333H1.16667V12.25H2.75V13.8333ZM13.8333 13.8333H12.25V12.25H13.8333V13.8333ZM12.25 11.4583H11.4583V12.25H3.54167V11.4583H2.75V3.54167H3.54167V2.75H11.4583V3.54167H12.25V11.4583ZM10.6667 4.33333V5.91667H8.29167V10.6667H6.70833V5.91667H4.33333V4.33333H10.6667Z" fill="#6C60FF"/>
</svg>
