<svg width="18" height="18" viewBox="0 0 18 18" fill="none" xmlns="http://www.w3.org/2000/svg">
<path d="M16.8 1.19995C15.8 0.199951 14.2 0.199951 13.2 1.19995L11.4 2.99995L10.7 2.29995C10.3 1.89995 9.7 1.89995 9.3 2.29995L8.5 2.99995C8.1 3.39995 8.1 3.99995 8.5 4.39995L13.5 9.39995C13.9 9.79995 14.5 9.79995 14.9 9.39995L15.6 8.69995C16 8.29995 16 7.69995 15.6 7.29995L15 6.59995L16.8 4.79995C17.8 3.79995 17.8 2.19995 16.8 1.19995ZM3.4 11C1.2 13.2 2.5 14.1999 0.5 16.7999L1.2 17.5C3.8 15.5 4.8 16.8 7 14.6L12.1 9.49995L8.5 5.89995L3.4 11Z" fill="#F3F2FF"/>
</svg>
