<svg width="28" height="28" viewBox="0 0 28 28" fill="none" xmlns="http://www.w3.org/2000/svg">
<path d="M4 8C4 7.46957 4.21071 6.96086 4.58579 6.58579C4.96086 6.21071 5.46957 6 6 6H22C22.5304 6 23.0391 6.21071 23.4142 6.58579C23.7893 6.96086 24 7.46957 24 8V12C24 12.5304 23.7893 13.0391 23.4142 13.4142C23.0391 13.7893 22.5304 14 22 14H6C5.46957 14 4.96086 13.7893 4.58579 13.4142C4.21071 13.0391 4 12.5304 4 12V8ZM22 8H6V12H22V8Z" fill="#8F93A1"/>
<path d="M18 16C17.4696 16 16.9609 16.2107 16.5858 16.5858C16.2107 16.9609 16 17.4696 16 18V20C16 20.5304 16.2107 21.0391 16.5858 21.4142C16.9609 21.7893 17.4696 22 18 22H22C22.5304 22 23.0391 21.7893 23.4142 21.4142C23.7893 21.0391 24 20.5304 24 20V18C24 17.4696 23.7893 16.9609 23.4142 16.5858C23.0391 16.2107 22.5304 16 22 16H18ZM18 18H22V20H18V18Z" fill="#8F93A1"/>
<path d="M4 17C4 16.7348 4.10536 16.4804 4.29289 16.2929C4.48043 16.1054 4.73478 16 5 16H13C13.2652 16 13.5196 16.1054 13.7071 16.2929C13.8946 16.4804 14 16.7348 14 17C14 17.2652 13.8946 17.5196 13.7071 17.7071C13.5196 17.8946 13.2652 18 13 18H5C4.73478 18 4.48043 17.8946 4.29289 17.7071C4.10536 17.5196 4 17.2652 4 17Z" fill="#8F93A1"/>
<path d="M5 20C4.73478 20 4.48043 20.1054 4.29289 20.2929C4.10536 20.4804 4 20.7348 4 21C4 21.2652 4.10536 21.5196 4.29289 21.7071C4.48043 21.8946 4.73478 22 5 22H13C13.2652 22 13.5196 21.8946 13.7071 21.7071C13.8946 21.5196 14 21.2652 14 21C14 20.7348 13.8946 20.4804 13.7071 20.2929C13.5196 20.1054 13.2652 20 13 20H5Z" fill="#8F93A1"/>
<path d="M0 6C0 4.4087 0.632141 2.88258 1.75736 1.75736C2.88258 0.632141 4.4087 0 6 0H22C23.5913 0 25.1174 0.632141 26.2426 1.75736C27.3679 2.88258 28 4.4087 28 6V22C28 23.5913 27.3679 25.1174 26.2426 26.2426C25.1174 27.3679 23.5913 28 22 28H6C4.4087 28 2.88258 27.3679 1.75736 26.2426C0.632141 25.1174 0 23.5913 0 22V6ZM6 2C4.93913 2 3.92172 2.42143 3.17157 3.17157C2.42143 3.92172 2 4.93913 2 6V22C2 23.0609 2.42143 24.0783 3.17157 24.8284C3.92172 25.5786 4.93913 26 6 26H22C23.0609 26 24.0783 25.5786 24.8284 24.8284C25.5786 24.0783 26 23.0609 26 22V6C26 4.93913 25.5786 3.92172 24.8284 3.17157C24.0783 2.42143 23.0609 2 22 2H6Z" fill="#8F93A1"/>
</svg>
