<svg width="19" height="21" viewBox="0 0 19 21" fill="none" xmlns="http://www.w3.org/2000/svg">
<path fill-rule="evenodd" clip-rule="evenodd" d="M17.4418 4.02447C17.8146 4.02447 18.125 4.33401 18.125 4.72788V5.09204C18.125 5.47633 17.8146 5.79545 17.4418 5.79545H1.55911C1.18537 5.79545 0.875 5.47633 0.875 5.09204V4.72788C0.875 4.33401 1.18537 4.02447 1.55911 4.02447H4.35333C4.92094 4.02447 5.41492 3.62102 5.5426 3.05177L5.68893 2.39819C5.91635 1.50791 6.66477 0.916626 7.5213 0.916626H11.4787C12.3259 0.916626 13.0827 1.50791 13.3017 2.35124L13.4583 3.05081C13.5851 3.62102 14.0791 4.02447 14.6476 4.02447H17.4418ZM16.0222 17.3367C16.314 14.618 16.8247 8.15887 16.8247 8.0937C16.8434 7.89629 16.7791 7.70942 16.6514 7.55896C16.5144 7.41809 16.341 7.33471 16.1499 7.33471H2.85733C2.66533 7.33471 2.48266 7.41809 2.3559 7.55896C2.22728 7.70942 2.1639 7.89629 2.17322 8.0937C2.17494 8.10568 2.19326 8.3332 2.2239 8.71358C2.36002 10.4034 2.73912 15.1097 2.98409 17.3367C3.15745 18.9774 4.23394 20.0085 5.79322 20.0459C6.99647 20.0737 8.23607 20.0833 9.50363 20.0833C10.6976 20.0833 11.9101 20.0737 13.1507 20.0459C14.764 20.0181 15.8396 19.0052 16.0222 17.3367Z" fill="#6C60FF"/>
</svg>
