<svg width="19" height="19" viewBox="0 0 19 19" fill="none" xmlns="http://www.w3.org/2000/svg">
<path fill-rule="evenodd" clip-rule="evenodd" d="M6.98571 17.1934L15.406 6.30438C15.8636 5.71718 16.0263 5.03828 15.8738 4.34703C15.7416 3.71862 15.3552 3.12112 14.7755 2.66783L13.3619 1.54494C12.1314 0.566263 10.606 0.669281 9.73146 1.79218L8.7857 3.01913C8.66367 3.17262 8.69418 3.39926 8.84672 3.52289C8.84672 3.52289 11.2365 5.43903 11.2874 5.48023C11.4501 5.63476 11.5721 5.8408 11.6026 6.08804C11.6535 6.57223 11.3179 7.02551 10.8196 7.08732C10.5857 7.11822 10.362 7.04611 10.1993 6.91219L7.68741 4.91363C7.56537 4.82195 7.38232 4.84152 7.28063 4.96514L1.31117 12.6915C0.924736 13.1757 0.792533 13.8041 0.924736 14.4119L1.68744 17.7188C1.72812 17.8939 1.88066 18.0176 2.06371 18.0176L5.41962 17.9763C6.02979 17.966 6.59928 17.6879 6.98571 17.1934ZM11.6847 16.1635H17.1569C17.6908 16.1635 18.125 16.6034 18.125 17.1443C18.125 17.6861 17.6908 18.125 17.1569 18.125H11.6847C11.1508 18.125 10.7166 17.6861 10.7166 17.1443C10.7166 16.6034 11.1508 16.1635 11.6847 16.1635Z" fill="#6C60FF"/>
</svg>
