<svg width="15" height="15" viewBox="0 0 15 15" fill="none" xmlns="http://www.w3.org/2000/svg">
<path d="M11.6562 4.53363C11.6562 4.8492 11.5309 5.15185 11.3077 5.37499C11.0846 5.59814 10.7819 5.7235 10.4664 5.7235C10.1508 5.7235 9.84814 5.59814 9.625 5.37499C9.40185 5.15185 9.27649 4.8492 9.27649 4.53363C9.27649 4.21805 9.40185 3.9154 9.625 3.69226C9.84814 3.46911 10.1508 3.34375 10.4664 3.34375C10.7819 3.34375 11.0846 3.46911 11.3077 3.69226C11.5309 3.9154 11.6562 4.21805 11.6562 4.53363Z" fill="#6C60FF"/>
<path d="M0.375 3.34375C0.375 2.55639 0.687778 1.80128 1.24453 1.24453C1.80128 0.687778 2.55639 0.375 3.34375 0.375H11.6562C12.4436 0.375 13.1987 0.687778 13.7555 1.24453C14.3122 1.80128 14.625 2.55639 14.625 3.34375V11.6562C14.625 12.4436 14.3122 13.1987 13.7555 13.7555C13.1987 14.3122 12.4436 14.625 11.6562 14.625H3.34375C2.55639 14.625 1.80128 14.3122 1.24453 13.7555C0.687778 13.1987 0.375 12.4436 0.375 11.6562V3.34375ZM3.34375 1.5625C2.87133 1.5625 2.41827 1.75017 2.08422 2.08422C1.75017 2.41827 1.5625 2.87133 1.5625 3.34375V11.6562C1.5625 11.9318 1.62425 12.1906 1.73587 12.4246L6.07262 8.08781C6.45121 7.70928 6.96464 7.49663 7.5 7.49663C8.03536 7.49663 8.54879 7.70928 8.92737 8.08781L13.2641 12.4246C13.3758 12.1918 13.4375 11.9318 13.4375 11.6562V3.34375C13.4375 3.10983 13.3914 2.87821 13.3019 2.6621C13.2124 2.44598 13.0812 2.24962 12.9158 2.08422C12.7504 1.91881 12.554 1.78761 12.3379 1.69809C12.1218 1.60857 11.8902 1.5625 11.6562 1.5625H3.34375ZM12.4246 13.2641L8.08781 8.92737C8.01062 8.85018 7.91898 8.78894 7.81812 8.74716C7.71727 8.70538 7.60917 8.68388 7.5 8.68388C7.39083 8.68388 7.28273 8.70538 7.18188 8.74716C7.08102 8.78894 6.98938 8.85018 6.91219 8.92737L2.57544 13.2641C2.80819 13.3758 3.06825 13.4375 3.34375 13.4375H11.6562C11.9318 13.4375 12.1906 13.3746 12.4246 13.2641Z" fill="#6C60FF"/>
</svg>
