<svg width="18" height="18" viewBox="0 0 18 18" fill="none" xmlns="http://www.w3.org/2000/svg">
<path d="M9.49996 5.14579C9.49996 4.574 9.38734 4.0078 9.16852 3.47953C8.9497 2.95125 8.62898 2.47125 8.22465 2.06693C7.82033 1.66261 7.34033 1.34188 6.81206 1.12307C6.28379 0.90425 5.71759 0.791626 5.14579 0.791626C4.574 0.791626 4.0078 0.90425 3.47953 1.12307C2.95125 1.34188 2.47125 1.66261 2.06693 2.06693C1.66261 2.47125 1.34188 2.95125 1.12307 3.47953C0.90425 4.0078 0.791626 4.574 0.791626 5.14579C0.791626 6.30059 1.25037 7.40809 2.06693 8.22465C2.8835 9.04122 3.991 9.49996 5.14579 9.49996C6.30059 9.49996 7.40809 9.04122 8.22465 8.22465C9.04122 7.40809 9.49996 6.30059 9.49996 5.14579ZM3.16663 2.77079V3.207C3.55837 2.80699 4.06211 2.53504 4.61148 2.42698C5.16084 2.31892 5.73005 2.37983 6.24412 2.60167C6.75818 2.82351 7.19298 3.19588 7.49123 3.66973C7.78948 4.14357 7.93718 4.69664 7.91488 5.25609C7.89258 5.81553 7.70132 6.3551 7.3663 6.8037C7.03128 7.25229 6.56822 7.58887 6.03813 7.76909C5.50803 7.94931 4.93578 7.96471 4.39676 7.81327C3.85774 7.66182 3.37725 7.35064 3.01858 6.92071C2.81038 6.67133 3.017 6.33329 3.34158 6.33329C3.48092 6.33329 3.60996 6.40059 3.70575 6.50192C3.98411 6.79745 4.34662 7.00022 4.74412 7.08275C5.14163 7.16528 5.55489 7.12357 5.92789 6.96328C6.30089 6.80298 6.61557 6.53186 6.82926 6.18667C7.04295 5.84148 7.14532 5.43893 7.12249 5.03359C7.09966 4.62825 6.95272 4.23974 6.70161 3.92074C6.4505 3.60173 6.10736 3.36767 5.71872 3.25028C5.33008 3.13289 4.91475 3.13786 4.52903 3.26451C4.14331 3.39117 3.80587 3.63337 3.56246 3.95829H4.35413C4.45911 3.95829 4.55979 4 4.63402 4.07423C4.70826 4.14846 4.74996 4.24914 4.74996 4.35413C4.74996 4.45911 4.70826 4.55979 4.63402 4.63402C4.55979 4.70826 4.45911 4.74996 4.35413 4.74996H2.77079C2.66581 4.74996 2.56513 4.70826 2.4909 4.63402C2.41666 4.55979 2.37496 4.45911 2.37496 4.35413V2.77079C2.37496 2.66581 2.41666 2.56513 2.4909 2.4909C2.56513 2.41666 2.66581 2.37496 2.77079 2.37496C2.87577 2.37496 2.97646 2.41666 3.05069 2.4909C3.12492 2.56513 3.16663 2.66581 3.16663 2.77079Z" fill="#6C60FF"/>
<path d="M14.8437 4.35413H10.2315C10.1685 3.94625 10.0563 3.54751 9.89738 3.16663H14.8437C15.1816 3.16663 15.5162 3.23318 15.8283 3.36248C16.1405 3.49178 16.4241 3.6813 16.663 3.92022C16.902 4.15913 17.0915 4.44277 17.2208 4.75493C17.3501 5.06709 17.4166 5.40166 17.4166 5.73954V14.8437C17.4166 15.1816 17.3501 15.5162 17.2208 15.8283C17.0915 16.1405 16.902 16.4241 16.663 16.663C16.4241 16.902 16.1405 17.0915 15.8283 17.2208C15.5162 17.3501 15.1816 17.4166 14.8437 17.4166H5.73954C5.40166 17.4166 5.06709 17.3501 4.75493 17.2208C4.44277 17.0915 4.15913 16.902 3.92022 16.663C3.6813 16.4241 3.49178 16.1405 3.36248 15.8283C3.23318 15.5162 3.16663 15.1816 3.16663 14.8437V9.89738C3.54188 10.0541 3.94008 10.1665 4.35413 10.2315V14.8437C4.35413 15.0084 4.38263 15.1667 4.43567 15.314L9.04554 10.8007C9.36155 10.4913 9.78134 10.3106 10.2232 10.2936C10.6651 10.2766 11.0976 10.4246 11.4364 10.7088L11.5377 10.8007L16.1468 15.3148C16.1998 15.1675 16.2291 15.0092 16.2291 14.8437V5.73954C16.2291 5.37211 16.0832 5.01972 15.8233 4.75991C15.5635 4.50009 15.2111 4.35413 14.8437 4.35413ZM15.3029 16.1508L10.7073 11.6493C10.607 11.5511 10.4752 11.4915 10.3352 11.4812C10.1952 11.4709 10.056 11.5106 9.9425 11.5931L9.876 11.6485L5.27879 16.1508C5.42288 16.2014 5.57804 16.2291 5.73954 16.2291H14.8437C15.0044 16.2291 15.1596 16.2014 15.3029 16.1508Z" fill="#6C60FF"/>
<path d="M12.8661 5.9375C13.3389 5.9375 13.7924 6.12533 14.1267 6.45968C14.4611 6.79403 14.6489 7.2475 14.6489 7.72033C14.6489 8.19317 14.4611 8.64664 14.1267 8.98099C13.7924 9.31533 13.3389 9.50317 12.8661 9.50317C12.3932 9.50317 11.9398 9.31533 11.6054 8.98099C11.2711 8.64664 11.0833 8.19317 11.0833 7.72033C11.0833 7.2475 11.2711 6.79403 11.6054 6.45968C11.9398 6.12533 12.3932 5.9375 12.8661 5.9375ZM12.8661 7.125C12.7879 7.125 12.7105 7.1404 12.6383 7.17032C12.566 7.20024 12.5004 7.24409 12.4451 7.29937C12.3898 7.35465 12.346 7.42028 12.3161 7.49251C12.2862 7.56474 12.2708 7.64215 12.2708 7.72033C12.2708 7.79851 12.2862 7.87593 12.3161 7.94816C12.346 8.02039 12.3898 8.08602 12.4451 8.1413C12.5004 8.19658 12.566 8.24043 12.6383 8.27035C12.7105 8.30027 12.7879 8.31567 12.8661 8.31567C13.024 8.31567 13.1754 8.25294 13.287 8.1413C13.3987 8.02965 13.4614 7.87823 13.4614 7.72033C13.4614 7.56244 13.3987 7.41102 13.287 7.29937C13.1754 7.18772 13.024 7.125 12.8661 7.125Z" fill="#6C60FF"/>
</svg>
