<svg width="18" height="18" viewBox="0 0 18 18" fill="none" xmlns="http://www.w3.org/2000/svg">
<path d="M14.8437 3.16663C15.1816 3.16663 15.5162 3.23318 15.8283 3.36248C16.1405 3.49178 16.4241 3.6813 16.663 3.92022C16.902 4.15913 17.0915 4.44277 17.2208 4.75493C17.3501 5.06709 17.4166 5.40166 17.4166 5.73954V14.8437C17.4166 15.1816 17.3501 15.5162 17.2208 15.8283C17.0915 16.1405 16.902 16.4241 16.663 16.663C16.4241 16.902 16.1405 17.0915 15.8283 17.2208C15.5162 17.3501 15.1816 17.4166 14.8437 17.4166H5.73954C5.40166 17.4166 5.06709 17.3501 4.75493 17.2208C4.44277 17.0915 4.15913 16.902 3.92022 16.663C3.6813 16.4241 3.49178 16.1405 3.36248 15.8283C3.23318 15.5162 3.16663 15.1816 3.16663 14.8437V9.89738C3.54188 10.0541 3.94008 10.1665 4.35413 10.2315V14.8437C4.35413 15.0084 4.38263 15.1667 4.43567 15.314L9.04554 10.8007C9.36155 10.4913 9.78134 10.3106 10.2232 10.2936C10.6651 10.2766 11.0976 10.4246 11.4364 10.7088L11.5377 10.8007L16.1468 15.3148C16.1998 15.1675 16.2291 15.0092 16.2291 14.8437V5.73954C16.2291 5.37211 16.0832 5.01972 15.8233 4.75991C15.5635 4.50009 15.2111 4.35413 14.8437 4.35413H10.2315C10.1684 3.94626 10.0563 3.54752 9.89738 3.16663H14.8437ZM9.9425 11.5931L9.876 11.6485L5.27879 16.1508C5.42288 16.2014 5.57804 16.2291 5.73954 16.2291H14.8437C15.0044 16.2291 15.1596 16.2014 15.3029 16.1508L10.7073 11.6493C10.607 11.5511 10.4752 11.4915 10.3352 11.4812C10.1952 11.4709 10.056 11.5106 9.9425 11.5931ZM12.8661 5.93746C13.339 5.93746 13.7924 6.12529 14.1268 6.45964C14.4611 6.79399 14.649 7.24746 14.649 7.72029C14.649 8.19313 14.4611 8.6466 14.1268 8.98095C13.7924 9.31529 13.339 9.50313 12.8661 9.50313C12.3933 9.50313 11.9398 9.31529 11.6055 8.98095C11.2711 8.6466 11.0833 8.19313 11.0833 7.72029C11.0833 7.24746 11.2711 6.79399 11.6055 6.45964C11.9398 6.12529 12.3933 5.93746 12.8661 5.93746ZM5.14579 0.791626C5.71759 0.791626 6.28379 0.90425 6.81206 1.12307C7.34033 1.34188 7.82033 1.66261 8.22465 2.06693C8.62898 2.47125 8.9497 2.95125 9.16852 3.47953C9.38734 4.0078 9.49996 4.574 9.49996 5.14579C9.49996 5.71759 9.38734 6.28379 9.16852 6.81206C8.9497 7.34033 8.62898 7.82033 8.22465 8.22465C7.82033 8.62898 7.34033 8.9497 6.81206 9.16852C6.28379 9.38734 5.71759 9.49996 5.14579 9.49996C3.991 9.49996 2.8835 9.04122 2.06693 8.22465C1.25037 7.40809 0.791626 6.30059 0.791626 5.14579C0.791626 3.991 1.25037 2.8835 2.06693 2.06693C2.8835 1.25037 3.991 0.791626 5.14579 0.791626ZM12.8661 7.12496C12.7879 7.12496 12.7105 7.14036 12.6383 7.17028C12.5661 7.20019 12.5004 7.24405 12.4452 7.29933C12.3899 7.35461 12.346 7.42024 12.3161 7.49247C12.2862 7.5647 12.2708 7.64211 12.2708 7.72029C12.2708 7.79847 12.2862 7.87589 12.3161 7.94812C12.346 8.02035 12.3899 8.08597 12.4452 8.14126C12.5004 8.19654 12.5661 8.24039 12.6383 8.27031C12.7105 8.30023 12.7879 8.31563 12.8661 8.31563C13.024 8.31563 13.1754 8.2529 13.2871 8.14126C13.3987 8.02961 13.4615 7.87818 13.4615 7.72029C13.4615 7.5624 13.3987 7.41098 13.2871 7.29933C13.1754 7.18768 13.024 7.12496 12.8661 7.12496ZM5.14579 2.37496L5.07454 2.3805C4.99545 2.39495 4.92264 2.43314 4.86578 2.48999C4.80893 2.54684 4.77074 2.61966 4.75629 2.69875L4.74996 2.77079V4.74996H2.76921L2.69796 4.75629C2.61887 4.77074 2.54605 4.80893 2.4892 4.86578C2.43235 4.92264 2.39416 4.99545 2.37971 5.07454L2.37338 5.14579L2.37971 5.21704C2.39416 5.29613 2.43235 5.36895 2.4892 5.4258C2.54605 5.48265 2.61887 5.52084 2.69796 5.53529L2.76921 5.54163H4.74996V7.52317L4.75629 7.59442C4.77074 7.67351 4.80893 7.74632 4.86578 7.80318C4.92264 7.86003 4.99545 7.89822 5.07454 7.91267L5.14579 7.91979L5.21704 7.91267C5.29613 7.89822 5.36895 7.86003 5.4258 7.80318C5.48265 7.74632 5.52084 7.67351 5.53529 7.59442L5.54163 7.52317V5.54163H7.52475L7.596 5.53529C7.67509 5.52084 7.74791 5.48265 7.80476 5.4258C7.86161 5.36895 7.8998 5.29613 7.91425 5.21704L7.92058 5.14579L7.91425 5.07454C7.89975 4.99534 7.86144 4.92245 7.80444 4.86559C7.74743 4.80872 7.67444 4.7706 7.59521 4.75629L7.52396 4.74996H5.54163V2.77079L5.53529 2.69954C5.52099 2.62031 5.48286 2.54732 5.426 2.49031C5.36914 2.43331 5.29624 2.395 5.21704 2.3805L5.14579 2.37496Z" fill="#6C60FF"/>
</svg>
