<svg width="26" height="23" viewBox="0 0 26 23" fill="none" xmlns="http://www.w3.org/2000/svg">
<path fill-rule="evenodd" clip-rule="evenodd" d="M10.7417 4.4584C10.7417 6.74173 8.88333 8.60006 6.59999 8.60006C4.31499 8.60006 2.45833 6.74173 2.45833 4.4584C2.45833 2.17506 4.31499 0.315063 6.59999 0.315063C8.88333 0.315063 10.7417 2.17506 10.7417 4.4584ZM24.334 13.4794C24.7223 13.8561 25.0007 14.2861 25.184 14.7444C25.739 16.1311 25.4507 17.7977 24.8573 19.1711C24.154 20.8061 22.8073 22.0411 21.1107 22.5811C20.3573 22.8227 19.5673 22.9261 18.779 22.9261H4.81066C3.42066 22.9261 2.19066 22.6027 1.18233 21.9961C0.550664 21.6161 0.438998 20.7411 0.907331 20.1711C1.69066 19.2211 2.464 18.2677 3.244 17.3061C4.73066 15.4661 5.73233 14.9327 6.84566 15.4011C7.29733 15.5944 7.75067 15.8861 8.21733 16.1927C9.46067 17.0161 11.189 18.1461 13.4657 16.9194C15.0219 16.0685 15.9252 14.6123 16.7115 13.3449L16.7273 13.3194C16.7802 13.2346 16.8327 13.1498 16.885 13.0653C17.1524 12.6333 17.4157 12.2078 17.714 11.8161C18.084 11.3311 19.4573 9.8144 21.2323 10.8944C22.364 11.5744 23.3157 12.4944 24.334 13.4794Z" fill="#8B81FF"/>
</svg>
