<svg width="33" height="28" viewBox="0 0 33 28" fill="none" xmlns="http://www.w3.org/2000/svg">
<path d="M8.50012 16.1031L2.03918 19.0023C0.664185 19.6273 0.664185 20.6507 2.03918 21.2757L13.6017 26.5492C14.9212 27.15 17.0931 27.15 18.4126 26.5492L29.9751 21.2757C31.3501 20.6507 31.3501 19.6273 29.9751 19.0023L23.7298 15.9968" stroke="#6C60FF" stroke-width="2" stroke-linecap="round" stroke-linejoin="round"/>
<path d="M8.5 7.9751L2.03125 10.8782C0.65625 11.5032 0.65625 12.5267 2.03125 13.1517L13.5937 18.4243C14.9133 19.0259 17.0852 19.0259 18.4047 18.4243L29.9672 13.1517C31.35 12.5267 31.35 11.5032 29.975 10.8782L23.5 7.9751" stroke="#6C60FF" stroke-width="2" stroke-linecap="round" stroke-linejoin="round"/>
<g clip-path="url(#clip0)">
<path d="M20.091 4.05959H16.9425V0.911157C16.9425 -0.302905 15.0597 -0.302905 15.0597 0.911157V4.05959H11.9113C10.6975 4.05959 10.6975 5.94241 11.9113 5.94241H15.0597V9.09085C15.0597 10.3049 16.9425 10.3049 16.9425 9.09085V5.94241H20.091C21.3049 5.94241 21.3049 4.05959 20.091 4.05959Z" fill="#6C60FF"/>
</g>
<defs>
<clipPath id="clip0">
<rect width="10" height="10" fill="white" transform="translate(11)"/>
</clipPath>
</defs>
</svg>
