<svg width="40" height="40" viewBox="0 0 40 40" fill="none" xmlns="http://www.w3.org/2000/svg">
<path d="M33.9689 10.7539L22.3001 5.43359C21.0353 4.85547 18.965 4.85547 17.7001 5.43359L6.03918 10.7539C4.66418 11.3789 4.66418 12.4016 6.03918 13.0266L17.6017 18.3C18.9212 18.9016 21.0931 18.9016 22.4126 18.3L33.9751 13.0266C35.3439 12.4016 35.3439 11.3781 33.9689 10.7539Z" stroke="#8F93A1" stroke-width="2" stroke-linecap="round" stroke-linejoin="round"/>
<path d="M12.5001 24.1031L6.03918 27.0023C4.66418 27.6273 4.66418 28.6507 6.03918 29.2757L17.6017 34.5492C18.9212 35.15 21.0931 35.15 22.4126 34.5492L33.9751 29.2757C35.3501 28.6507 35.3501 27.6273 33.9751 27.0023L27.7298 23.9968" stroke="#8F93A1" stroke-width="2" stroke-linecap="round" stroke-linejoin="round"/>
<path d="M12.5 15.9751L6.03125 18.8782C4.65625 19.5032 4.65625 20.5267 6.03125 21.1517L17.5937 26.4243C18.9133 27.0259 21.0852 27.0259 22.4047 26.4243L33.9672 21.1517C35.35 20.5267 35.35 19.5032 33.975 18.8782L27.5 15.9751" stroke="#8F93A1" stroke-width="2" stroke-linecap="round" stroke-linejoin="round"/>
</svg>
