<svg width="21" height="9" viewBox="0 0 21 9" fill="none" xmlns="http://www.w3.org/2000/svg">
<path d="M10.0209 0.666748C12.5605 0.666748 14.8605 1.6155 16.6334 3.15842L18.4446 1.34716C19.0484 0.743415 20.0834 1.16508 20.0834 2.018V7.37508C20.0834 7.90216 19.6521 8.33342 19.125 8.33342H13.768C12.915 8.33342 12.4838 7.29842 13.0875 6.69466L14.918 4.86425C13.5859 3.75258 11.8896 3.06258 10.0113 3.06258C6.98296 3.06258 4.36671 4.82591 3.12087 7.37508C2.86212 7.91175 2.24879 8.18008 1.68337 7.98842C1.00296 7.768 0.657955 6.99175 0.964622 6.34008C2.61296 2.98591 6.04379 0.666748 10.0209 0.666748Z" fill="#9F9F9F"/>
</svg>
