<svg width="13" height="13" viewBox="0 0 13 13" fill="none" xmlns="http://www.w3.org/2000/svg">
<path d="M5.08331 10.0417H7.91665V12.8751H5.08331V10.0417Z" fill="white"/>
<path d="M12.2517 4.16958L8.83042 0.748333C8.43228 0.349705 7.89215 0.125496 7.32875 0.125H5.08333V4.375H8.625C8.81286 4.375 8.99303 4.44963 9.12587 4.58247C9.25871 4.7153 9.33333 4.89547 9.33333 5.08333C9.33333 5.27119 9.25871 5.45136 9.12587 5.5842C8.99303 5.71704 8.81286 5.79167 8.625 5.79167H4.375C4.18714 5.79167 4.00697 5.71704 3.87413 5.5842C3.74129 5.45136 3.66667 5.27119 3.66667 5.08333V0.125H2.25C1.68641 0.125 1.14591 0.348883 0.747398 0.747398C0.348883 1.14591 0.125 1.68641 0.125 2.25V10.75C0.125 11.3136 0.348883 11.8541 0.747398 12.2526C1.14591 12.6511 1.68641 12.875 2.25 12.875H3.66667V10.0417C3.66667 9.66594 3.81592 9.30561 4.0816 9.03993C4.34728 8.77426 4.70761 8.625 5.08333 8.625H7.91667C8.29239 8.625 8.65272 8.77426 8.9184 9.03993C9.18408 9.30561 9.33333 9.66594 9.33333 10.0417V12.875H10.75C11.3136 12.875 11.8541 12.6511 12.2526 12.2526C12.6511 11.8541 12.875 11.3136 12.875 10.75V5.67125C12.8745 5.10785 12.6503 4.56772 12.2517 4.16958Z" fill="white"/>
</svg>
