<svg width="21" height="9" viewBox="0 0 21 9" fill="none" xmlns="http://www.w3.org/2000/svg">
<path d="M10.9791 0.666748C8.43954 0.666748 6.13954 1.6155 4.36663 3.15842L2.55538 1.34716C1.95163 0.743415 0.916626 1.16508 0.916626 2.018V7.37508C0.916626 7.90216 1.34788 8.33342 1.87496 8.33342H7.23204C8.08496 8.33342 8.51621 7.29842 7.91246 6.69466L6.08204 4.86425C7.41413 3.75258 9.11038 3.06258 10.9887 3.06258C14.017 3.06258 16.6333 4.82591 17.8791 7.37508C18.1379 7.91175 18.7512 8.18008 19.3166 7.98842C19.997 7.768 20.342 6.99175 20.0354 6.34008C18.387 2.98591 14.9562 0.666748 10.9791 0.666748Z" fill="#9F9F9F"/>
</svg>
